# xmcd
#
# Track frame offsets:
#  150
#  13686
#  26068
#  38254
#  52646
#  65664
#  78251
#  91264
#  104191
#  117195
#  127917
#  140411
#  154435
#  167572
#  181772
#  192620
#  205642
#  217097
#  228617
#  241038
#  253883
#  268980
#  281422
#  293567
#  305801
#
# Disc length: 4227 seconds
#
# Revision: 0
# Processed by: cddbd v1.5.2PL0 Copyright (c) Steve Scherf et al.
# Submitted via: AltoMP3_Maker 3.0
#
DISCID=67108119
DTITLE=Anthologies - Western Swing - guitar - Wizards of Country Guitar CD A - feat. Bob Dunn
DYEAR=1900
DGENRE=
TTITLE0=Chinatown My Chinatown
TTITLE1=Some of These Days
TTITLE2=The Sheik of Araby
TTITLE3=St. Louis Blues
TTITLE4=Somebody's Been Using That Thing
TTITLE5=Cheesy Breeze
TTITLE6=Fan It
TTITLE7=Taking Off
TTITLE8=Kangaroo Blues
TTITLE9=Draggin the Bow
TTITLE10=Little White Lies
TTITLE11=Ease My Worried Mind
TTITLE12=Truck Driver's Blues
TTITLE13=I'll Get Mine By and Bye No 2
TTITLE14=Out Where West Winds Blow
TTITLE15=Jitterbug Jive
TTITLE16=Mary Jane
TTITLE17=Takin' Off
TTITLE18=Mama's Gone, Goodbye
TTITLE19=Blue Skies
TTITLE20=What Difference Does It Make
TTITLE21=Texas Hambone Blues
TTITLE22=Washington and Lee Swing
TTITLE23=Easy Ridin' Papa
TTITLE24=When I Take My Sugar to Tea
EXTD=
EXTT0=
EXTT1=
EXTT2=
EXTT3=
EXTT4=
EXTT5=
EXTT6=
EXTT7=
EXTT8=
EXTT9=
EXTT10=
EXTT11=
EXTT12=
EXTT13=
EXTT14=
EXTT15=
EXTT16=
EXTT17=
EXTT18=
EXTT19=
EXTT20=
EXTT21=
EXTT22=
EXTT23=
EXTT24=
PLAYORDER=
